<?xml version="1.0" encoding="UTF-8"?>
<svg version="1.1" xmlns="http://www.w3.org/2000/svg" width="1258" height="475">
<path d="M0 0 C0.93368408 -0.0049649 1.86736816 -0.00992981 2.8293457 -0.01504517 C5.92375421 -0.02967054 9.01811141 -0.03647033 12.11254883 -0.04199219 C14.26386008 -0.04774445 16.41517132 -0.05350217 18.56648254 -0.05926514 C23.08159626 -0.06977696 27.59669217 -0.07561808 32.11181641 -0.07910156 C37.8875735 -0.08457891 43.66309397 -0.10859005 49.43877697 -0.13707352 C53.88526589 -0.15573266 58.33169828 -0.1609073 62.77822304 -0.16243744 C64.90680545 -0.16545837 67.03538699 -0.17346796 69.16393089 -0.18662262 C72.14853052 -0.20374723 75.13255818 -0.20178682 78.1171875 -0.1953125 C78.9907338 -0.20452728 79.86428009 -0.21374207 80.76429749 -0.22323608 C87.37614735 -0.17848542 93.05330617 0.84008755 98.31958008 5.16113281 C101.91707953 9.76593211 101.45541869 15.5949705 100.88208008 21.16113281 C98.71430328 25.65726247 96.40488693 28.06519793 91.88208008 30.16113281 C87.81915228 31.20030177 83.98099001 31.28209002 79.796875 31.2746582 C78.75702454 31.27487724 78.75702454 31.27487724 77.69616699 31.27510071 C75.41826179 31.27440732 73.14043965 31.26664196 70.86254883 31.25878906 C69.27785792 31.25692284 67.69316643 31.2554999 66.10847473 31.25450134 C61.94758498 31.25069224 57.7867304 31.24087573 53.62585449 31.22979736 C48.62812273 31.21774515 43.63037917 31.21317335 38.63263702 31.20734406 C31.04909361 31.19766308 23.46562731 31.1784953 15.88208008 31.16113281 C15.88208008 44.03113281 15.88208008 56.90113281 15.88208008 70.16113281 C20.77020508 70.11472656 25.65833008 70.06832031 30.69458008 70.02050781 C33.80267441 70.0000548 36.91068504 69.98079812 40.01879883 69.96582031 C44.94557052 69.94196547 49.87204311 69.91383224 54.79858398 69.859375 C58.77325709 69.81571758 62.74760918 69.79195404 66.72250366 69.78162384 C68.23429412 69.77426795 69.74606822 69.75990382 71.25772095 69.73821259 C86.0623377 69.53434307 86.0623377 69.53434307 92.88208008 74.16113281 C96.55603033 78.59169856 96.38647218 82.73123398 96.22973633 88.27832031 C95.75450182 92.21902892 94.64674793 94.32371055 91.88208008 97.16113281 C87.35547818 99.89133073 84.03062133 100.53016823 78.77514648 100.50170898 C77.74970734 100.5023661 77.74970734 100.5023661 76.70355225 100.5030365 C74.46328303 100.50096081 72.22377965 100.47768905 69.98364258 100.45410156 C68.42280486 100.44850123 66.86196184 100.4442332 65.30111694 100.4412384 C61.20751195 100.42982394 57.11422997 100.40038647 53.02075195 100.36712646 C48.10148289 100.33093429 43.18210539 100.31724821 38.26274109 100.29976654 C30.8022966 100.27074666 23.34255984 100.21323653 15.88208008 100.16113281 C15.88208008 114.35113281 15.88208008 128.54113281 15.88208008 143.16113281 C21.2265332 143.12632812 26.57098633 143.09152344 32.07739258 143.05566406 C35.46802854 143.04033114 38.85862161 143.02588898 42.24926758 143.01464844 C47.6282644 142.99673155 53.00710768 142.97556075 58.38598633 142.93481445 C62.72373002 142.90216153 67.06130898 142.88426728 71.39916611 142.87650108 C73.05213895 142.87096821 74.70510302 142.8601638 76.35800552 142.84394264 C78.67758754 142.8220891 80.99649332 142.81916914 83.31616211 142.82055664 C84.63520538 142.81389481 85.95424866 142.80723297 87.31326294 142.80036926 C92.47222312 143.32187673 95.70040315 144.91726236 99.25708008 148.66113281 C102.02599082 154.62494056 101.79042267 160.48391255 99.69458008 166.66113281 C96.81623839 170.63125928 93.58464245 172.18778302 88.88208008 173.16113281 C87.49947068 173.251847 86.11327687 173.29576887 84.72770691 173.30157471 C83.90773727 173.30728485 83.08776764 173.312995 82.24295044 173.31887817 C81.35195648 173.31999603 80.46096252 173.32111389 79.54296875 173.32226562 C78.59777878 173.32723053 77.65258881 173.33219543 76.67875671 173.33731079 C73.55251334 173.35191319 70.4263207 173.35873118 67.30004883 173.36425781 C65.12535094 173.37001078 62.95065306 173.3757685 60.7759552 173.38153076 C56.21554325 173.39203523 51.65514891 173.39788155 47.09472656 173.40136719 C41.2572459 173.40685116 35.41999856 173.43087961 29.58259106 173.45933914 C25.08982162 173.477982 20.59710821 173.483172 16.10430336 173.48470306 C13.95256588 173.48772631 11.80082932 173.49574374 9.64912987 173.50888824 C6.63569867 173.52598315 3.6228353 173.52405996 0.609375 173.51757812 C-0.27554626 173.52679291 -1.16046753 173.53600769 -2.07220459 173.54550171 C-8.09563447 173.50500892 -13.08769279 172.70896953 -17.86010742 168.69628906 C-21.71979232 163.67869869 -22.24021469 160.38152242 -22.26509094 154.15325928 C-22.27224625 152.92244125 -22.27940155 151.69162323 -22.28677368 150.42350769 C-22.28961373 149.06228663 -22.29232549 147.7010653 -22.29492188 146.33984375 C-22.30118951 144.90397478 -22.30783658 143.46810742 -22.31483459 142.03224182 C-22.33584109 137.32000857 -22.34623356 132.60777511 -22.35620117 127.89550781 C-22.36024996 126.27113071 -22.36436691 124.64675377 -22.36855125 123.02237701 C-22.38759517 115.39029655 -22.40182806 107.7582257 -22.41016322 100.12612605 C-22.41993403 91.3256138 -22.44625267 82.52535318 -22.48666412 73.72492957 C-22.51685309 66.91628552 -22.53163472 60.1077135 -22.53494424 53.29900384 C-22.53729148 49.23539317 -22.54620926 45.17205156 -22.57140541 41.10851288 C-22.59474021 37.28348877 -22.59889793 33.45890986 -22.58864403 29.63383293 C-22.58814987 28.23424992 -22.59443486 26.83464457 -22.60820007 25.43512917 C-22.68090347 17.60164489 -22.51694668 11.78635752 -18.11791992 5.16113281 C-12.15717562 0.41686694 -7.3856637 0.00934303 0 0 Z " fill="#006480" transform="translate(1005.117919921875,166.8388671875)"/>
<path d="M0 0 C8.61490424 7.33212069 8.61490424 7.33212069 9.23828125 13.26953125 C9.40745111 19.06582502 8.98003501 22.45138857 5 27 C1.20991318 29.52672455 -0.49197342 29.44341245 -5 29 C-9.00169189 27.3150771 -12.56284824 25.25681374 -16.3046875 23.05859375 C-32.59499967 13.52415234 -49.41087769 10.08381042 -68.30859375 13.68359375 C-75.41595577 15.55968821 -81.32973185 18.31635851 -87 23 C-87.62390625 23.50144531 -88.2478125 24.00289062 -88.890625 24.51953125 C-100.43671496 34.83571163 -103.90334451 51.95750694 -104.875 66.8125 C-105.79391858 86.81414991 -102.42342592 104.75626627 -90.6875 121.25 C-80.7031644 131.46652945 -67.42824233 135.07458448 -53.48095703 135.24023438 C-43.32293005 135.27035454 -33.83203156 134.91128297 -23.9140625 132.65625 C-21 132 -21 132 -18 132 C-18 118.14 -18 104.28 -18 90 C-27.18386884 90.11812139 -27.18386884 90.11812139 -36.3671875 90.27026367 C-43.2629602 90.31489806 -48.82393025 90.216703 -55 87 C-58.07452669 82.7725258 -58.64392391 79.15139132 -58 74 C-56.27669305 70.61721227 -55.11430795 68.55216451 -51.67759705 66.84919739 C-48.91023741 65.97153188 -46.74075985 65.74055324 -43.84594727 65.7253418 C-42.84463272 65.71580978 -41.84331818 65.70627777 -40.81166077 65.69645691 C-39.74072678 65.69736832 -38.66979279 65.69827972 -37.56640625 65.69921875 C-36.45571274 65.69493362 -35.34501923 65.6906485 -34.20066833 65.68623352 C-31.85473308 65.68049759 -29.50878004 65.67998452 -27.1628418 65.68432617 C-23.57895493 65.68748549 -19.9958942 65.66401898 -16.41210938 65.63867188 C-14.13020937 65.63639872 -11.84830716 65.63569546 -9.56640625 65.63671875 C-7.96304161 65.62290413 -7.96304161 65.62290413 -6.32728577 65.60881042 C-0.87553021 65.64261726 3.42648468 65.67870819 8 69 C10.91023676 72.92655403 11.37820562 75.76576307 11.38818359 80.60693359 C11.39764008 81.92535248 11.40709656 83.24377136 11.4168396 84.60214233 C11.41146848 86.03424379 11.40531517 87.46634249 11.3984375 88.8984375 C11.40046026 90.37667993 11.40337338 91.85492138 11.40713501 93.3331604 C11.41155165 96.42825846 11.40515069 99.52309632 11.39111328 102.61816406 C11.37405149 106.57131956 11.38384721 110.5238626 11.40183067 114.47699547 C11.41271219 117.52949571 11.40920175 120.5818527 11.4014473 123.63435745 C11.39945577 125.09110208 11.40186751 126.54786 11.40888596 128.00458908 C11.46652155 143.33352868 11.46652155 143.33352868 6.375 150.1875 C0.5315499 154.64697508 -6.14089648 156.43540312 -13.1875 158.125 C-13.84516357 158.28355469 -14.50282715 158.44210937 -15.18041992 158.60546875 C-43.46532863 165.01900527 -76.10058396 165.62826477 -101.73046875 150.375 C-121.38598706 137.21037378 -132.27371549 119.10690803 -137.0859375 96.1015625 C-138.37296334 88.75042511 -138.39490046 81.3765866 -138.375 73.9375 C-138.37478851 73.20866608 -138.37457703 72.47983215 -138.37435913 71.72891235 C-138.30517443 47.83592574 -132.3370744 25.12423524 -115.43359375 7.30859375 C-85.4957597 -21.09150243 -33.55505057 -23.27821884 0 0 Z " fill="#226E80" transform="translate(924,180)"/>
<path d="M0 0 C0.7013205 -0.00335861 1.40264099 -0.00671722 2.12521362 -0.01017761 C4.44889086 -0.01968996 6.77249589 -0.02163174 9.09619141 -0.02270508 C10.7198591 -0.02592057 12.34352651 -0.02928487 13.9671936 -0.03279114 C17.3785265 -0.0387853 20.78983408 -0.04063105 24.20117188 -0.04003906 C28.53927529 -0.03993813 32.87721246 -0.05351666 37.21527672 -0.07081127 C40.57509074 -0.08202657 43.934866 -0.08395527 47.29469681 -0.08342934 C48.89162385 -0.08459799 50.48855227 -0.08895596 52.08546066 -0.0967617 C71.28888531 -0.18174272 90.19458244 1.65472127 105.13916016 14.98901367 C115.65558522 26.07328026 117.67391944 40.28228703 117.32275391 54.94995117 C116.7302148 68.05099082 111.51414342 79.10604288 102.07275391 88.14526367 C96.0584892 93.23518031 89.30304571 95.72628913 81.91650391 98.16479492 C79.20442362 98.86759147 79.20442362 98.86759147 78.07275391 100.14526367 C78.56904297 100.48557617 79.06533203 100.82588867 79.57666016 101.17651367 C80.25599609 101.66120117 80.93533203 102.14588867 81.63525391 102.64526367 C82.29654297 103.10932617 82.95783203 103.57338867 83.63916016 104.05151367 C89.84985905 109.39490791 94.39952377 115.81756739 98.63525391 122.77026367 C99.66569143 124.43482941 100.69697878 126.09886928 101.72900391 127.76245117 C102.26654297 128.63224609 102.80408203 129.50204102 103.35791016 130.39819336 C105.16430785 133.29192725 107.00415474 136.16194022 108.85400391 139.02807617 C109.48363037 140.00566895 110.11325684 140.98326172 110.76196289 141.99047852 C111.98456149 143.88627914 113.21048753 145.77993922 114.44018555 147.67114258 C122.02691794 159.48677783 122.02691794 159.48677783 122.13525391 165.77026367 C121.04476241 169.23417784 119.90856232 171.05604705 116.94384766 173.19604492 C113.45693856 174.96497793 109.94656621 175.69689454 106.07275391 175.14526367 C100.11022243 172.47887319 97.41995435 169.48968389 94.13525391 163.95776367 C93.19043534 162.43532161 92.2450889 160.91320706 91.29931641 159.39135742 C90.78916992 158.55846191 90.27902344 157.72556641 89.75341797 156.86743164 C86.56990118 151.71109635 83.2818698 146.62096851 80.01025391 141.52026367 C79.32415039 140.44848877 78.63804687 139.37671387 77.93115234 138.27246094 C72.19286975 129.311412 72.19286975 129.311412 66.38525391 120.39526367 C65.82535767 119.52973877 65.82535767 119.52973877 65.25415039 118.64672852 C60.20096544 111.02594811 54.24227667 105.68002925 45.23803711 103.55352783 C41.86264042 102.91709677 38.49635661 102.78931163 35.07275391 102.73120117 C34.351604 102.71183502 33.6304541 102.69246887 32.88745117 102.67251587 C30.61600038 102.61341104 28.34449696 102.56661592 26.07275391 102.52026367 C24.51934811 102.48202001 22.96596208 102.44296471 21.41259766 102.40307617 C17.63281292 102.30776801 13.85292923 102.22348735 10.07275391 102.14526367 C10.07941574 102.93595749 10.08607758 103.72665131 10.09294128 104.54130554 C10.15310699 112.0008146 10.19875591 119.46020565 10.22819042 126.91989422 C10.24383186 130.7548071 10.26504195 134.58951912 10.29907227 138.42431641 C10.33172058 142.12664064 10.34961837 145.82877192 10.35738564 149.53122902 C10.36291937 150.94220834 10.37372555 152.35317737 10.38994408 153.76407433 C10.4117884 155.74348994 10.41297991 157.7231006 10.41333008 159.70263672 C10.41999191 160.82848679 10.42665375 161.95433685 10.43351746 163.11430359 C9.92661937 167.37301508 8.27344469 169.98264976 5.22509766 172.93432617 C1.13506239 175.23543494 -3.38231788 174.62474347 -7.92724609 174.14526367 C-11.59864359 172.84497706 -12.55018845 171.7791757 -14.52897644 168.4524231 C-16.99124669 162.40358361 -16.33570821 155.71034233 -16.29956055 149.29321289 C-16.30199088 147.78306834 -16.30571254 146.27292539 -16.31062317 144.76278687 C-16.32000119 140.67613259 -16.3106337 136.58971912 -16.29729104 132.50308371 C-16.28594785 128.22130404 -16.29008616 123.93953574 -16.29203796 119.65774536 C-16.29291984 112.47043946 -16.28186119 105.28322807 -16.26342773 98.09594727 C-16.24224564 89.78945335 -16.23875429 81.48309768 -16.24498969 73.17658222 C-16.25068566 65.17873936 -16.24503598 57.18094513 -16.23381615 49.18310928 C-16.2291749 45.78210678 -16.22829424 42.38113405 -16.23040199 38.98012924 C-16.23228669 34.97621885 -16.22416709 30.97244905 -16.2083416 26.96857071 C-16.20410244 25.50001863 -16.20324572 24.03145228 -16.2060318 22.56289673 C-16.20925944 20.55721399 -16.19893614 18.55152312 -16.1879425 16.54586792 C-16.18588964 15.42391966 -16.18383677 14.3019714 -16.18172169 13.1460247 C-15.72988096 7.81794577 -13.99048687 4.59286191 -9.92724609 1.14526367 C-6.43388641 -0.01918956 -3.687109 0.01107763 0 0 Z M10.07275391 21.14526367 C10.07275391 40.94526367 10.07275391 60.74526367 10.07275391 81.14526367 C18.36400391 81.20713867 26.65525391 81.26901367 35.19775391 81.33276367 C37.78506348 81.36007568 40.37237305 81.3873877 43.03808594 81.41552734 C65.61478069 82.12312478 65.61478069 82.12312478 85.07275391 72.14526367 C90.84309948 65.28054221 92.52994033 57.54000864 92.32666016 48.73120117 C91.59238221 41.25286274 89.20377619 34.01119362 83.61181641 28.77807617 C73.44821944 20.71400158 59.82318936 20.98518126 47.47509766 21.04760742 C46.52090942 21.0486145 45.56672119 21.04962158 44.58361816 21.05065918 C41.05915098 21.0558449 37.53470109 21.06980572 34.01025391 21.08276367 C26.11087891 21.10338867 18.21150391 21.12401367 10.07275391 21.14526367 Z " fill="#427A87" transform="translate(632.92724609375,166.854736328125)"/>
<path d="M0 0 C5.67248999 5.4005213 8.70599275 12.78041508 12.1875 19.6875 C12.85973483 21.00678666 13.53283884 22.32563078 14.20678711 23.64404297 C15.53918025 26.25114782 16.86871444 28.85967691 18.19628906 31.46923828 C20.44700915 35.8750198 22.74483859 40.25417422 25.0625 44.625 C29.70288217 53.40233125 34.26620464 62.21908615 38.83056641 71.03613281 C42.17624268 77.49493223 45.53884597 83.9439324 48.9375 90.375 C55.71570193 103.20258052 62.34640807 116.10749893 69 129 C75.31013541 118.15035931 81.05208922 107.07256475 86.59814453 95.81738281 C90.28549366 88.35261844 94.1039127 80.9720873 97.99790955 73.61358643 C101.27180682 67.41420018 104.47853898 61.18278099 107.65625 54.93359375 C108.37434593 53.52236488 108.37434593 53.52236488 109.10694885 52.08262634 C111.0630422 48.23635378 113.01762907 44.38932837 114.96826172 40.5402832 C120.03177661 30.55414095 125.13390209 20.59594229 130.53125 10.78515625 C130.9387146 10.03817978 131.3461792 9.29120331 131.76599121 8.52159119 C132.33912048 7.49202049 132.33912048 7.49202049 132.92382812 6.44165039 C133.25386841 5.84606827 133.58390869 5.25048615 133.9239502 4.63685608 C135.13417662 2.79589438 136.29814029 1.40472234 138 0 C141.70695534 -0.40439513 144.07814135 -0.5094482 147.375 1.3125 C150.54668031 4.60616801 150.12962976 8.17985841 150.14044189 12.51522827 C150.14341302 13.17988275 150.14638414 13.84453723 150.1494453 14.52933276 C150.15813079 16.76094156 150.1596404 18.99249672 150.16113281 21.22412109 C150.16576105 22.82234309 150.17078572 24.42056397 150.17617798 26.01878357 C150.18930244 30.36384397 150.19574689 34.70888892 150.20018864 39.05396605 C150.20311896 41.76784823 150.20722367 44.48172618 150.21169281 47.19560623 C150.22536715 55.68465416 150.23503442 64.17369242 150.2388947 72.6627506 C150.24337705 82.4661791 150.26093342 92.26946827 150.2898953 102.0728544 C150.31149948 109.6483048 150.32159829 117.22371596 150.32293582 124.79919684 C150.32398465 129.32488904 150.32990913 133.85045027 150.34775543 138.37611008 C150.36421456 142.63277863 150.36640219 146.88921745 150.35761642 151.14590645 C150.35684492 152.70799563 150.36120372 154.27009705 150.37107468 155.83215523 C150.38376382 157.96531271 150.37793472 160.09765275 150.36749268 162.23080444 C150.36895924 163.42431707 150.3704258 164.6178297 150.3719368 165.84750938 C149.92692915 169.61933953 148.7047621 172.2952379 146 175 C138.64613246 175.47444307 138.64613246 175.47444307 136.39943218 173.82473278 C134.47122814 171.31052939 134.6157977 169.62810166 134.60127258 166.47615051 C134.58873444 165.32770157 134.57619629 164.17925262 134.5632782 162.9960022 C134.56471329 161.73508759 134.56614838 160.47417297 134.56762695 159.17504883 C134.55861148 157.83471267 134.54828479 156.49438478 134.53674316 155.15406799 C134.50912135 151.51384421 134.4998817 147.87377664 134.49388909 144.23346162 C134.48451882 140.42972237 134.45831659 136.62610042 134.43388367 132.82243347 C134.39017776 125.61894884 134.361656 118.41548692 134.33856028 111.21190995 C134.31153048 103.01120358 134.26761766 94.81061498 134.22227156 86.60999262 C134.12936673 69.74005567 134.0577128 52.87009329 134 36 C133.73406036 36.52157181 133.46812073 37.04314362 133.19412231 37.58052063 C130.37177271 43.11522353 127.54767514 48.64903214 124.72265625 54.18237305 C123.67502654 56.23488841 122.62781141 58.28761545 121.58105469 60.34057617 C115.90175847 71.4784282 110.19854853 82.60101075 104.34902191 93.65062714 C101.63555857 98.77631394 98.97108298 103.92546678 96.33203125 109.08984375 C95.935862 109.86467134 95.53969275 110.63949892 95.13151836 111.43780613 C93.64177563 114.35230819 92.15337145 117.26747615 90.66918945 120.18481445 C77.54143422 145.97237719 77.54143422 145.97237719 73 149 C67.36818182 149.53636364 67.36818182 149.53636364 65 149 C61.79825339 146.20104986 59.87173827 143.31516416 57.890625 139.57421875 C57.30901611 138.48318848 56.72740723 137.3921582 56.12817383 136.26806641 C55.50189481 135.07466026 54.87584335 133.88113467 54.25 132.6875 C53.58990453 131.44164663 52.9293317 130.19604607 52.26831055 128.95068359 C47.02913081 119.05542259 41.90631993 109.09955537 36.79290771 99.1388855 C32.17563015 90.14577568 27.45264019 81.22196461 22.56159973 72.37405396 C18.45983875 64.92298676 14.53493289 57.38473243 10.6328125 49.828125 C9.98521996 48.57627641 9.3375155 47.32448571 8.68969727 46.07275391 C7.12536933 43.04906691 5.56215992 40.02480748 4 37 C3.99761165 37.69298848 3.99522329 38.38597696 3.99276257 39.0999651 C3.93366568 55.95008599 3.85814995 72.80004475 3.76428509 89.65000629 C3.71929031 97.79847739 3.67988424 105.94690441 3.65356445 114.09545898 C3.63061408 121.19648425 3.59724948 128.2973705 3.55129844 135.39828557 C3.52732601 139.15933157 3.5086237 142.92023954 3.50238609 146.68136024 C3.49523342 150.87672237 3.46483389 155.07160309 3.43237305 159.2668457 C3.43380814 160.51840958 3.43524323 161.76997345 3.4367218 163.0594635 C3.42418365 164.19949829 3.41164551 165.33953308 3.39872742 166.51411438 C3.39411845 167.50688542 3.38950949 168.49965647 3.38476086 169.52251148 C2.93895107 172.39309621 2.30731271 173.29133639 0 175 C-2.70348746 175.55595912 -5.2789747 175.43172844 -8 175 C-10.17476401 173.45661909 -10.81832637 172.36334727 -12 170 C-12.10080193 167.85754655 -12.13512981 165.71187929 -12.14044189 163.56706238 C-12.14341302 162.89917877 -12.14638414 162.23129516 -12.1494453 161.54317266 C-12.15814954 159.29463838 -12.15964199 157.04615723 -12.16113281 154.79760742 C-12.16575979 153.18968084 -12.17078429 151.58175537 -12.17617798 149.97383118 C-12.18931611 145.59772082 -12.19574976 141.22162581 -12.20018864 136.8454988 C-12.20311726 134.11269342 -12.20722167 131.37989226 -12.21169281 128.647089 C-12.22537184 120.10037257 -12.23503635 111.55366574 -12.2388947 103.00693911 C-12.24337575 93.13445036 -12.26092413 83.26210004 -12.2898953 73.38965338 C-12.31149985 65.76326817 -12.32159834 58.13692194 -12.32293582 50.51050645 C-12.32398479 45.9535006 -12.32991193 41.3966248 -12.34775543 36.83965111 C-12.36421481 32.5526276 -12.36640205 28.26583219 -12.35761642 23.97878838 C-12.35684489 22.40541219 -12.36120416 20.83202385 -12.37107468 19.25867844 C-12.38376296 17.11014266 -12.37793511 14.96241857 -12.36749268 12.81388855 C-12.36895924 11.61170276 -12.3704258 10.40951696 -12.3719368 9.1709013 C-11.96239955 5.67944198 -11.09580741 3.79518132 -9 1 C-5.82121306 -0.58939347 -3.5043228 -0.41576711 0 0 Z " fill="#72819A" transform="translate(269,166)"/>
<path d="M0 0 C0.82148529 -0.00571014 1.64297058 -0.01142029 2.48934937 -0.01730347 C3.38708069 -0.01842133 4.28481201 -0.01953918 5.20974731 -0.02069092 C6.15800385 -0.02565582 7.10626038 -0.03062073 8.08325195 -0.03573608 C11.22454551 -0.05035782 14.36578858 -0.05715944 17.5071106 -0.06268311 C19.68802899 -0.06843416 21.86894736 -0.0741919 24.04986572 -0.07995605 C28.62464636 -0.09046581 33.19940942 -0.09630877 37.77420044 -0.09979248 C43.63768943 -0.10527978 49.50094651 -0.1293131 55.36436272 -0.15776443 C59.86992066 -0.17638198 64.37542261 -0.18159593 68.88101578 -0.18312836 C71.04277948 -0.18615696 73.20454215 -0.19419247 75.36626816 -0.20731354 C78.38979533 -0.22435672 81.41275417 -0.22249798 84.43630981 -0.21600342 C85.32999268 -0.2252182 86.22367554 -0.23443298 87.1444397 -0.243927 C91.89210186 -0.2119603 95.11488097 0.01477249 98.9524231 3.14044189 C100.54859052 6.33277675 100.46708424 9.67505686 99.9524231 13.14044189 C98.08227215 15.57163812 96.67103965 16.78113362 93.9524231 18.14044189 C91.26712447 18.23357097 88.60797892 18.26622512 85.92263794 18.25396729 C85.09329239 18.25411331 84.26394684 18.25425934 83.4094696 18.25440979 C80.66074024 18.25371161 77.91207816 18.24592361 75.1633606 18.23809814 C73.26049842 18.23623363 71.35763577 18.23480988 69.45477295 18.23381042 C64.44060954 18.22998788 59.42647499 18.22015983 54.412323 18.20910645 C48.39928789 18.19709061 42.38624314 18.19248883 36.37319946 18.18665314 C27.23292059 18.17694795 18.09270506 18.15778954 8.9524231 18.14044189 C8.9524231 37.28044189 8.9524231 56.42044189 8.9524231 76.14044189 C14.50183716 76.10563721 20.05125122 76.07083252 25.76882935 76.03497314 C29.29162638 76.01963839 32.81438205 76.00519609 36.33718872 75.99395752 C41.92459699 75.97604771 47.5118573 75.95489598 53.09915161 75.91412354 C57.60547949 75.88144634 62.11164861 75.86357125 66.61808586 75.85581017 C68.33442622 75.85028164 70.05075823 75.83948578 71.76703072 75.82325172 C74.17740552 75.80136599 76.58713039 75.79847957 78.99758911 75.79986572 C79.70177979 75.7890799 80.40597046 75.77829407 81.13150024 75.7671814 C86.16976886 75.79838271 89.55928628 76.84204291 93.9524231 79.14044189 C95.09605421 81.42770413 95.21744242 82.96896616 95.3274231 85.51544189 C95.37640747 86.28630127 95.42539185 87.05716064 95.4758606 87.85137939 C94.67585784 91.34989889 92.93930649 92.24280174 89.9524231 94.14044189 C87.14694887 94.50751394 84.74588295 94.64893467 81.94924927 94.59454346 C80.76309525 94.59541962 80.76309525 94.59541962 79.55297852 94.59631348 C76.94999663 94.59353594 74.34817264 94.56246075 71.74539185 94.53106689 C69.93650437 94.5236033 68.12760879 94.51791093 66.31871033 94.51391602 C61.56577087 94.49866895 56.81332306 94.45939521 52.06057739 94.4151001 C46.35376393 94.36691919 40.64678576 94.34860895 34.93982697 94.32528687 C26.27701744 94.28654353 17.61528592 94.20988368 8.9524231 94.14044189 C8.9524231 114.27044189 8.9524231 134.40044189 8.9524231 155.14044189 C14.86277466 155.10563721 20.77312622 155.07083252 26.86257935 155.03497314 C30.61324031 155.01963941 34.36386246 155.00519718 38.11453247 154.99395752 C44.0640773 154.97604383 50.01348324 154.95488149 55.96292114 154.91412354 C60.7610215 154.88145984 65.55897284 154.86357405 70.35717583 154.85581017 C72.1851581 154.85027924 74.01313248 154.83947868 75.8410511 154.82325172 C78.40707976 154.80138415 80.97249747 154.79847884 83.53860474 154.79986572 C84.2895491 154.7890799 85.04049347 154.77829407 85.81419373 154.7671814 C90.88925208 154.79674295 94.4455241 155.76025009 98.9524231 158.14044189 C100.53140363 161.29840296 100.7717048 164.74714825 99.9524231 168.14044189 C97.93709477 170.8544633 96.31005437 172.83381456 92.90994263 173.60174561 C90.35599565 173.77793545 87.8443154 173.79301732 85.28445435 173.75567627 C84.31639862 173.76122528 83.3483429 173.76677429 82.35095215 173.77249146 C79.15510359 173.78428986 75.96067223 173.7600097 72.7649231 173.73419189 C70.54202336 173.73248079 68.31912161 173.73254647 66.09622192 173.73431396 C61.43904294 173.7326606 56.78234525 173.7139589 52.12527466 173.68243408 C46.1563959 173.64275686 40.18814759 173.63838883 34.21916199 173.64589691 C29.6294884 173.64896683 25.03995647 173.63684522 20.45031738 173.61976624 C18.24950041 173.6127362 16.04866739 173.60961171 13.84783936 173.61045837 C10.77172849 173.60866016 7.6963722 173.5872756 4.62039185 173.56036377 C3.7111496 173.56329437 2.80190735 173.56622498 1.8651123 173.56924438 C-6.42201461 173.45741307 -6.42201461 173.45741307 -10.0475769 170.14044189 C-11.8126656 165.84102495 -12.29846016 162.19388887 -12.30154419 157.56816101 C-12.30718384 156.26294495 -12.31282349 154.95772888 -12.31863403 153.61296082 C-12.31474599 152.17867986 -12.31064969 150.74439946 -12.30636597 149.31011963 C-12.30907785 147.79027133 -12.31263989 146.27042434 -12.31698608 144.75057983 C-12.3260881 140.63292924 -12.32257507 136.51537908 -12.31622791 132.39772677 C-12.31115752 128.08524226 -12.31586217 123.77276623 -12.31900024 119.46028137 C-12.32263646 112.21994485 -12.3178494 104.97964917 -12.30831909 97.73931885 C-12.29743109 89.37093538 -12.300964 81.00264934 -12.3119719 72.63426822 C-12.32104967 65.44516047 -12.32232778 58.25608204 -12.31709456 51.06697041 C-12.31397809 46.77498691 -12.31355676 42.4830492 -12.32016754 38.19106865 C-12.32594763 34.15681397 -12.32193198 30.12268488 -12.31037903 26.08844376 C-12.30773617 24.60860083 -12.30849116 23.12874732 -12.31290436 21.64890862 C-12.31837561 19.62785598 -12.31029572 17.60678023 -12.30154419 15.58573914 C-12.30079014 14.45511771 -12.30003609 13.32449629 -12.29925919 12.15961361 C-11.97728086 8.29717301 -11.07942787 5.39660829 -8.6100769 2.39044189 C-5.90219128 0.22413339 -3.33094118 0.01388851 0 0 Z " fill="#5C8090" transform="translate(477.0475769042969,166.85955810546875)"/>
<path d="M0 0 C0.83560959 -0.00838898 1.67121918 -0.01677795 2.53215027 -0.02542114 C3.44035019 -0.01418213 4.34855011 -0.00294312 5.28427124 0.00863647 C6.24724625 0.00483978 7.21022125 0.00104309 8.20237732 -0.00286865 C11.38544273 -0.01027846 14.56759556 0.01111178 17.75057983 0.03353882 C19.95967501 0.0359227 22.16877225 0.03682868 24.37786865 0.03631592 C29.00646665 0.03944448 33.63475502 0.05601677 38.26327515 0.08285522 C44.20660531 0.11687473 50.14959573 0.12448273 56.09301186 0.12296486 C60.65337386 0.1235077 65.21366108 0.13446042 69.77399826 0.14896774 C71.96613372 0.15534676 74.15827767 0.15927721 76.35042191 0.16075516 C79.40794687 0.16507419 82.46510572 0.18254388 85.52255249 0.20394897 C86.43480087 0.2030426 87.34704926 0.20213623 88.28694153 0.20120239 C94.54506087 0.26551985 94.54506087 0.26551985 96.77401733 2.49447632 C97.08651733 5.99447632 97.08651733 5.99447632 96.77401733 9.49447632 C92.86996583 12.09717732 89.60600934 11.76026514 85.07992554 11.7215271 C84.19191254 11.72181915 83.30389954 11.72211121 82.38897705 11.72241211 C79.45081851 11.72101764 76.51291288 11.70545089 73.57479858 11.68978882 C71.5388452 11.68605911 69.50289002 11.68321194 67.4669342 11.68121338 C62.10586601 11.67357364 56.74490603 11.65392219 51.38388062 11.63180542 C44.95284003 11.60775925 38.52176328 11.59856763 32.09069061 11.5868988 C22.31839091 11.56749804 12.54632867 11.52917776 2.77401733 11.49447632 C2.77401733 34.26447632 2.77401733 57.03447632 2.77401733 80.49447632 C9.03112671 80.48287476 15.28823608 80.47127319 21.73495483 80.45932007 C25.69068503 80.45421265 29.64641119 80.44939883 33.60214233 80.44564819 C39.88567953 80.43966229 46.1692022 80.4325687 52.45272827 80.41903687 C57.51662989 80.40819936 62.58051594 80.40219764 67.64442825 80.39959908 C69.57979197 80.39774639 71.51515481 80.39412876 73.45051193 80.38874626 C76.1539064 80.3815244 78.85723592 80.38048587 81.56063843 80.38095093 C82.36696213 80.37735565 83.17328583 80.37376038 84.00404358 80.37005615 C89.54591301 80.38042416 89.54591301 80.38042416 91.77401733 81.49447632 C92.64901733 84.30697632 92.64901733 84.30697632 92.77401733 87.49447632 C91.30361938 89.66531372 91.30361938 89.66531372 88.77401733 91.49447632 C85.86149207 91.8684781 83.33357269 92.00153292 80.42538452 91.94857788 C79.58599335 91.94916199 78.74660217 91.94974609 77.8817749 91.9503479 C75.11105805 91.94756418 72.34142093 91.91645908 69.57089233 91.88510132 C67.648474 91.87763994 65.72604805 91.87194652 63.80361938 91.86795044 C58.74654094 91.85268599 53.68992283 91.81339707 48.63302612 91.76913452 C42.56413282 91.72100085 36.4950855 91.70265168 30.42605591 91.67932129 C21.20838966 91.64054666 11.99173325 91.56389845 2.77401733 91.49447632 C2.77401733 115.25447632 2.77401733 139.01447632 2.77401733 163.49447632 C9.47585327 163.48287476 16.17768921 163.47127319 23.08261108 163.45932007 C27.316336 163.45421341 31.55005715 163.44939964 35.78378296 163.44564819 C42.51076033 163.43965937 49.23772416 163.43255804 55.96469116 163.41903687 C61.38520011 163.40820926 66.80569453 163.40219976 72.22621346 163.39959908 C74.29916678 163.3977446 76.37211927 163.39412355 78.44506645 163.38874626 C81.33785627 163.38153752 84.23058529 163.38048531 87.12338257 163.38095093 C87.98940598 163.37735565 88.85542938 163.37376038 89.74769592 163.37005615 C95.65996517 163.38042416 95.65996517 163.38042416 96.77401733 164.49447632 C96.96151733 167.93197632 96.96151733 167.93197632 96.77401733 171.49447632 C94.07377295 174.19472071 91.95649225 173.75003665 88.28694153 173.78775024 C87.37469315 173.78684387 86.46244476 173.7859375 85.52255249 173.78500366 C84.56308212 173.79172089 83.60361176 173.79843811 82.61506653 173.80535889 C79.43101884 173.82441696 76.24718107 173.82826708 73.06307983 173.83041382 C70.85591544 173.83683656 68.64875192 173.84356452 66.44158936 173.85058594 C61.80954006 173.86257843 57.17756545 173.86626476 52.54550171 173.86508179 C46.60444064 173.86487855 40.66385765 173.89217764 34.72290993 173.92662621 C30.16247348 173.9488439 25.60215298 173.95292089 21.04166794 173.95186234 C18.851163 173.95422616 16.66065524 173.96309333 14.4702034 173.97852707 C11.40788389 173.99808205 8.34660687 173.99238994 5.28427124 173.98031616 C4.37607132 173.99155518 3.4678714 174.00279419 2.53215027 174.01437378 C1.69654068 174.0059848 0.86093109 173.99759583 0 173.98895264 C-0.72377523 173.99004217 -1.44755047 173.99113171 -2.19325829 173.99225426 C-5.23277899 173.24792986 -6.37679891 171.99368774 -8.22598267 169.49447632 C-8.72934723 166.4365921 -8.72934723 166.4365921 -8.73391724 162.77633667 C-8.7401572 162.10195509 -8.74639716 161.42757352 -8.75282621 160.73275614 C-8.76877604 158.47393698 -8.75614535 156.21619402 -8.74356079 153.95736694 C-8.74898107 152.33766551 -8.7561032 150.71796901 -8.76480103 149.09828186 C-8.78304867 144.69950733 -8.775961 140.30110773 -8.76328468 135.90232658 C-8.75316444 131.3010748 -8.76254764 126.69985533 -8.76882935 122.09860229 C-8.7761086 114.37128937 -8.76651077 106.64412932 -8.74746704 98.9168396 C-8.72569773 89.98034937 -8.73274891 81.04422417 -8.75477266 72.10774279 C-8.77291875 64.43799224 -8.77548887 56.76835164 -8.76501799 49.09858656 C-8.75877869 44.51648442 -8.75795936 39.93455391 -8.77116394 35.35246277 C-8.78271036 31.04479175 -8.77471911 26.73759178 -8.75158691 22.42997169 C-8.74629331 20.84812515 -8.74782475 19.26623904 -8.75663757 17.68440819 C-8.76755183 15.52660719 -8.75388219 13.37032019 -8.73391724 11.21261597 C-8.73240913 10.00473167 -8.73090103 8.79684738 -8.72934723 7.55236053 C-7.88422882 2.41835941 -5.18484553 -0.00780501 0 0 Z " fill="#808FA5" transform="translate(124.22598266601563,166.50552368164063)"/>
<path d="M0 0 C4.24682027 3.55547743 7.38026853 6.81727919 7.890625 12.51953125 C7.98919456 17.86692994 7.84893318 21.71861245 4.6875 26.25 C0.15980949 30.5808344 -3.40542097 32.92089671 -9.625 33.625 C-15.63794896 33.01351366 -20.26927484 30.787704 -24.25 26.1875 C-27.82295734 21.09874258 -27.97374533 16.2930476 -27.3125 10.25 C-25.63074772 5.40582224 -22.60092915 2.00684731 -18.3125 -0.75 C-12.04964774 -3.73908858 -6.03431472 -3.18793985 0 0 Z " fill="#005A7F" transform="translate(1178.3125,236.75)"/>
<path d="M0 0 C3.69465673 3.02290096 6.23041637 5.6912491 7.75 10.25 C8.28422104 16.21889281 8.28306722 21.18593698 4.75 26.25 C0.22230949 30.5808344 -3.34292097 32.92089671 -9.5625 33.625 C-15.57544896 33.01351366 -20.20677484 30.787704 -24.1875 26.1875 C-27.76045734 21.09874258 -27.91124533 16.2930476 -27.25 10.25 C-25.57232346 5.41756214 -22.56107939 1.95695683 -18.25 -0.75 C-11.59878998 -3.3853851 -6.25860996 -3.37002075 0 0 Z " fill="#005A7F" transform="translate(1178.25,167.75)"/>
<path d="M0 0 C4.00269407 3.3076656 6.52094234 6.11668864 7.23828125 11.40234375 C7.39362859 18.45694044 6.74922623 23.3590851 1.8671875 28.66796875 C-3.17555833 32.48077657 -7.88061145 33.1889855 -14.1328125 32.66796875 C-20.46867839 30.48890459 -24.18100378 27.27881488 -27.3828125 21.35546875 C-29.13374367 15.08129872 -28.59355063 10.12516723 -25.46875 4.49609375 C-22.69821814 0.70483963 -19.23431182 -1.75488281 -14.71484375 -2.99609375 C-9.57093927 -3.66534607 -4.42433121 -2.76318121 0 0 Z " fill="#005A7F" transform="translate(1179.1328125,99.33203125)"/>
<path d="M0 0 C5 0 5 0 7.5 2.37890625 C8.34870427 3.42785168 9.18165524 4.48970117 10 5.5625 C10.4125 6.07619141 10.825 6.58988281 11.25 7.11914062 C14.31917429 10.97958641 17.12987716 14.98182803 20 19 C20.33 13.06 20.66 7.12 21 1 C22.98 1 24.96 1 27 1 C27 10.9 27 20.8 27 31 C21 31 21 31 19.35668945 29.77832031 C18.94636475 29.21725586 18.53604004 28.65619141 18.11328125 28.078125 C17.64986328 27.46453125 17.18644531 26.8509375 16.70898438 26.21875 C16.24814453 25.5690625 15.78730469 24.919375 15.3125 24.25 C14.84005859 23.61578125 14.36761719 22.9815625 13.88085938 22.328125 C12.99705318 21.13814751 12.12084748 19.9424568 11.25512695 18.73925781 C9.86149589 16.80807172 8.42891827 14.90522436 7 13 C6.67 18.94 6.34 24.88 6 31 C4.02 31 2.04 31 0 31 C0 20.77 0 10.54 0 0 Z " fill="#005A7F" transform="translate(1081,374)"/>
<path d="M0 0 C5 0 5 0 6.52978516 1.22167969 C6.94534668 1.78274414 7.3609082 2.34380859 7.7890625 2.921875 C8.25570312 3.53546875 8.72234375 4.1490625 9.203125 4.78125 C9.90695312 5.75578125 9.90695312 5.75578125 10.625 6.75 C11.34042969 7.70132812 11.34042969 7.70132812 12.0703125 8.671875 C13.39472493 10.43775825 14.69764426 12.21782898 16 14 C16.99 15.32 17.98 16.64 19 18 C19.33 12.39 19.66 6.78 20 1 C21.98 1 23.96 1 26 1 C26 10.9 26 20.8 26 31 C21 31 21 31 19.1472168 29.43945312 C18.58687744 28.72724609 18.02653809 28.01503906 17.44921875 27.28125 C16.83369141 26.51425781 16.21816406 25.74726563 15.58398438 24.95703125 C14.95814453 24.14621094 14.33230469 23.33539063 13.6875 22.5 C13.04232422 21.68917969 12.39714844 20.87835938 11.73242188 20.04296875 C10.14133657 18.03937985 8.56885555 16.0210426 7 14 C6.67 19.61 6.34 25.22 6 31 C4.02 31 2.04 31 0 31 C0 20.77 0 10.54 0 0 Z " fill="#005A7F" transform="translate(638,374)"/>
<path d="M0 0 C5.50237235 1.10047447 6.85979341 2.59192653 10.0625 6.75 C10.69381836 7.53890625 10.69381836 7.53890625 11.33789062 8.34375 C12.56978768 9.88696367 13.78511087 11.44336157 15 13 C16.32 14.65 17.64 16.3 19 18 C19.33 12.39 19.66 6.78 20 1 C21.98 1 23.96 1 26 1 C26 10.9 26 20.8 26 31 C21 31 21 31 19.0078125 29.34765625 C18.38648438 28.59355469 17.76515625 27.83945312 17.125 27.0625 C16.44695313 26.25039063 15.76890625 25.43828125 15.0703125 24.6015625 C12.01206898 20.75856215 8.97669676 16.9069145 6 13 C5.67 18.94 5.34 24.88 5 31 C3.35 31 1.7 31 0 31 C0 20.77 0 10.54 0 0 Z " fill="#005A7F" transform="translate(699,374)"/>
<path d="M0 0 C14 0 14 0 19 2 C21.95086957 5.33914188 23 7.07035259 23 11.5625 C21.93441002 15.22546554 20.59231123 17.24044288 18 20 C18.433125 20.62648438 18.86625 21.25296875 19.3125 21.8984375 C19.869375 22.71570313 20.42625 23.53296875 21 24.375 C21.556875 25.18710937 22.11375 25.99921875 22.6875 26.8359375 C24 29 24 29 24 31 C20.8125 31.5 20.8125 31.5 17 31 C14.44648935 28.23158994 12 24.86112137 12 21 C9.69 21 7.38 21 5 21 C5 24.3 5 27.6 5 31 C3.35 31 1.7 31 0 31 C0 20.77 0 10.54 0 0 Z M5 6 C5 9.3 5 12.6 5 16 C10.617863 16.51329263 10.617863 16.51329263 15.5625 14.3125 C17.26862989 12.07137874 17.26862989 12.07137874 16.8125 9.3125 C16.21073101 7.06648733 16.21073101 7.06648733 15 6 C11.66381769 5.85742811 8.34024394 5.95771843 5 6 Z " fill="#005A7F" transform="translate(281,374)"/>
<path d="M0 0 C3.89968373 2.24727537 6.38791743 4.85234517 8.5 8.8125 C9.39949986 14.54681163 8.9185508 19.16289841 6.3125 24.375 C2.61022706 28.57758009 -0.39545437 29.82171715 -5.9375 30.4375 C-10.54542684 30.24329619 -13.2828223 28.69677598 -17 26 C-20.94426565 20.63653597 -20.79256882 15.42764601 -20 9 C-18.0171377 4.96345889 -15.83420139 2.3499944 -12 0 C-7.77696144 -1.40767952 -4.28687214 -1.15169699 0 0 Z M-11.875 7.0625 C-14.41733802 10.57690844 -15 12.67500571 -15 17 C-13.43570861 20.62256953 -11.53764189 23.18064131 -8 25 C-4.51882526 24.92747553 -2.57327789 24.38734993 0.3125 22.4375 C2.63861164 19.07756096 3.22644372 16.06789972 3 12 C1.64339984 9.02839965 0.29716559 7.29716559 -2 5 C-6.3197148 4.42947163 -8.29276982 4.49263922 -11.875 7.0625 Z " fill="#005A7F" transform="translate(1040,375)"/>
<path d="M0 0 C3.89968373 2.24727537 6.38791743 4.85234517 8.5 8.8125 C9.39949986 14.54681163 8.9185508 19.16289841 6.3125 24.375 C2.61022706 28.57758009 -0.39545437 29.82171715 -5.9375 30.4375 C-10.54542684 30.24329619 -13.2828223 28.69677598 -17 26 C-20.17758174 22.18690191 -21.1358716 17.90949363 -21 13 C-19.82101691 6.79603071 -17.12833165 3.52572801 -12 0 C-7.77696144 -1.40767952 -4.28687214 -1.15169699 0 0 Z M-12.4375 7.0625 C-14.29438288 10.55343982 -14.92934077 13.04308317 -15 17 C-13.43570861 20.62256953 -11.53764189 23.18064131 -8 25 C-4.51882526 24.92747553 -2.57327789 24.38734993 0.3125 22.4375 C2.63861164 19.07756096 3.22644372 16.06789972 3 12 C1.64339984 9.02839965 0.29716559 7.29716559 -2 5 C-7.73412306 4.24345797 -7.73412306 4.24345797 -12.4375 7.0625 Z " fill="#005A7F" transform="translate(778,375)"/>
<path d="M0 0 C-0.66 1.65 -1.32 3.3 -2 5 C-3.03060547 4.7834375 -3.03060547 4.7834375 -4.08203125 4.5625 C-4.98308594 4.376875 -5.88414062 4.19125 -6.8125 4 C-7.70582031 3.814375 -8.59914062 3.62875 -9.51953125 3.4375 C-12.07260693 2.91315157 -12.07260693 2.91315157 -15 3 C-14.67 4.65 -14.34 6.3 -14 8 C-13.16855469 8.24234375 -12.33710937 8.4846875 -11.48046875 8.734375 C-10.39378906 9.06953125 -9.30710938 9.4046875 -8.1875 9.75 C-7.10855469 10.07484375 -6.02960938 10.3996875 -4.91796875 10.734375 C-1.76682603 12.1011357 -0.63483227 13.02146998 1 16 C1.4375 19.5 1.4375 19.5 1 23 C-0.86708505 25.36497439 -2.32061431 26.66030715 -5 28 C-11.33058054 28.53789246 -16.51174113 28.5599517 -22 25 C-22 21 -22 21 -21 19 C-20.34 19.309375 -19.68 19.61875 -19 19.9375 C-15.25484437 21.26390929 -11.96407788 21.67507558 -8 22 C-7.34 21.67 -6.68 21.34 -6 21 C-6.65634657 18.9913883 -6.65634657 18.9913883 -8 17 C-10.26862312 16.05068575 -10.26862312 16.05068575 -12.875 15.5625 C-16.30309297 14.63478164 -17.90912505 14.07608135 -20.6875 11.75 C-22.47511651 8.00451779 -22.14954086 5.95154669 -21 2 C-15.21308846 -5.33008795 -7.4777388 -3.66256595 0 0 Z " fill="#005A7F" transform="translate(139,377)"/>
<path d="M0 0 C0.85722656 0.07863281 1.71445312 0.15726562 2.59765625 0.23828125 C4.9375 0.6875 4.9375 0.6875 7.9375 2.6875 C7.6075 4.3375 7.2775 5.9875 6.9375 7.6875 C6.25042969 7.53152344 5.56335938 7.37554687 4.85546875 7.21484375 C3.95441406 7.02019531 3.05335938 6.82554687 2.125 6.625 C0.78501953 6.32916016 0.78501953 6.32916016 -0.58203125 6.02734375 C-3.18880779 5.48400537 -3.18880779 5.48400537 -6.0625 6.6875 C-6.79573796 8.70258358 -6.79573796 8.70258358 -7.0625 10.6875 C-6.32644531 10.85765625 -5.59039063 11.0278125 -4.83203125 11.203125 C6.05168032 13.90608111 6.05168032 13.90608111 8.9375 17.6875 C9.50338965 20.77468019 9.61619087 23.61642381 8.9375 26.6875 C7.01145706 29.14544433 5.97744944 29.67418352 2.9375 30.6875 C-3.51698997 31.27427182 -8.31630749 30.68551348 -14.0625 27.6875 C-13.7325 26.0375 -13.4025 24.3875 -13.0625 22.6875 C-10.0625 22.6875 -10.0625 22.6875 -7.875 23.6875 C-4.11167544 25.02557096 -1.045737 24.82252498 2.9375 24.6875 C2.93752231 22.74137538 2.93752231 22.74137538 1.9375 20.6875 C-0.99431807 19.20466288 -0.99431807 19.20466288 -4.5 18.125 C-10.85618818 15.99696773 -10.85618818 15.99696773 -13.0625 12.6875 C-13.73517267 5.62443694 -13.73517267 5.62443694 -11.3125 2.25 C-7.54893655 -0.36358573 -4.49053277 -0.45379441 0 0 Z " fill="#005A7F" transform="translate(518.0625,374.3125)"/>
<path d="M0 0 C14 0 14 0 20 3 C22.68209911 7.02314866 22.68843415 10.27219919 22 15 C19.88608123 18.49890004 18.88263941 19.70578686 15 21 C13.43881572 21.06740865 11.8749748 21.08514456 10.3125 21.0625 C8.889375 21.041875 7.46625 21.02125 6 21 C6 24.3 6 27.6 6 31 C4.02 31 2.04 31 0 31 C0 20.77 0 10.54 0 0 Z M6 6 C6 9.3 6 12.6 6 16 C8.165625 15.8453125 8.165625 15.8453125 10.375 15.6875 C11.18710937 15.62949219 11.99921875 15.57148438 12.8359375 15.51171875 C15.37921338 15.17009472 15.37921338 15.17009472 17 12 C16.71725862 8.68913741 16.71725862 8.68913741 15 6 C11.99668982 5.85806663 9.00782866 5.95763622 6 6 Z " fill="#005A7F" transform="translate(451,374)"/>
<path d="M0 0 C1.65 0 3.3 0 5 0 C5.05607422 1.97033203 5.05607422 1.97033203 5.11328125 3.98046875 C5.17895657 5.71617364 5.24540337 7.45184947 5.3125 9.1875 C5.33505859 10.05181641 5.35761719 10.91613281 5.38085938 11.80664062 C5.58260715 16.59356522 5.7905688 20.17924857 9 24 C11.89706707 25.24677006 11.89706707 25.24677006 15 25 C17.36439068 23.72762333 17.36439068 23.72762333 19 21 C19.64064107 17.42463799 19.6968908 13.87591026 19.75 10.25 C19.77964844 9.26644531 19.80929687 8.28289062 19.83984375 7.26953125 C19.91042411 4.84627224 19.96317701 2.42396846 20 0 C21.98 0 23.96 0 26 0 C26.08767555 3.37483413 26.14061628 6.74937215 26.1875 10.125 C26.21263672 11.07632812 26.23777344 12.02765625 26.26367188 13.0078125 C26.32988284 19.36406488 25.68552833 23.7549866 21.5 28.8125 C18.15614765 31.45971645 14.35600197 31.33152201 10.2890625 31.28515625 C6.73355576 30.84223476 4.65161892 29.32825076 2 27 C-0.03298081 23.8091454 -0.23693426 21.32408356 -0.1953125 17.578125 C-0.18564453 16.04091797 -0.18564453 16.04091797 -0.17578125 14.47265625 C-0.15902344 13.40917969 -0.14226562 12.34570312 -0.125 11.25 C-0.11597656 10.17105469 -0.10695313 9.09210938 -0.09765625 7.98046875 C-0.07411305 5.32008722 -0.04122799 2.66015664 0 0 Z " fill="#005A7F" transform="translate(391,374)"/>
<path d="M0 0 C1.98 0 3.96 0 6 0 C7.5731138 3.93012208 9.13949833 7.86283832 10.69970703 11.7980957 C11.23139321 13.13639426 11.76491007 14.47396703 12.30029297 15.81079102 C13.06961 17.73265629 13.83230154 19.65703716 14.59375 21.58203125 C15.05458984 22.73936768 15.51542969 23.8967041 15.99023438 25.08911133 C17 28 17 28 17 31 C15.02 31 13.04 31 11 31 C9.515 27.535 9.515 27.535 8 24 C4.7 24 1.4 24 -2 24 C-2.99 26.31 -3.98 28.62 -5 31 C-6.98 31 -8.96 31 -11 31 C-10.41146688 26.68033587 -9.35740427 22.97894213 -7.71484375 18.9453125 C-7.26689453 17.83671875 -6.81894531 16.728125 -6.35742188 15.5859375 C-5.88884766 14.44382812 -5.42027344 13.30171875 -4.9375 12.125 C-4.46505859 10.9596875 -3.99261719 9.794375 -3.50585938 8.59375 C-2.34267209 5.72690456 -1.17389942 2.86247193 0 0 Z M2 9 C1.01 11.97 0.02 14.94 -1 18 C1.31 18 3.62 18 6 18 C5.50351065 13.53159589 5.31012244 12.31012244 2 9 Z " fill="#005A7F" transform="translate(881,374)"/>
<path d="M0 0 C1.2065625 0.0309375 1.2065625 0.0309375 2.4375 0.0625 C4.0106138 3.99262208 5.57699833 7.92533832 7.13720703 11.8605957 C7.66889321 13.19889426 8.20241007 14.53646703 8.73779297 15.87329102 C9.50711 17.79515629 10.26980154 19.71953716 11.03125 21.64453125 C11.49208984 22.80186768 11.95292969 23.9592041 12.42773438 25.15161133 C13.4375 28.0625 13.4375 28.0625 13.4375 31.0625 C11.4575 31.0625 9.4775 31.0625 7.4375 31.0625 C5.9525 27.5975 5.9525 27.5975 4.4375 24.0625 C1.1375 24.0625 -2.1625 24.0625 -5.5625 24.0625 C-6.5525 26.3725 -7.5425 28.6825 -8.5625 31.0625 C-10.5425 31.0625 -12.5225 31.0625 -14.5625 31.0625 C-13.90942236 27.19195021 -12.77342807 23.78023141 -11.3125 20.140625 C-10.8690625 19.03332031 -10.425625 17.92601562 -9.96875 16.78515625 C-9.5046875 15.63917969 -9.040625 14.49320312 -8.5625 13.3125 C-8.0984375 12.15105469 -7.634375 10.98960937 -7.15625 9.79296875 C-3.24802836 0.0792202 -3.24802836 0.0792202 0 0 Z M-0.5625 9.0625 C-2.5425 13.5175 -2.5425 13.5175 -4.5625 18.0625 C-1.9225 18.0625 0.7175 18.0625 3.4375 18.0625 C2.4475 15.0925 1.4575 12.1225 0.4375 9.0625 C0.1075 9.0625 -0.2225 9.0625 -0.5625 9.0625 Z " fill="#005A7F" transform="translate(235.5625,373.9375)"/>
<path d="M0 0 C1.98 0 3.96 0 6 0 C8.79308415 6.62391498 11.53267983 13.24733426 14 20 C15.6012468 17.59812979 16.51691416 15.88385731 17.47265625 13.2421875 C17.73240234 12.53449219 17.99214844 11.82679688 18.25976562 11.09765625 C18.52466797 10.36417969 18.78957031 9.63070313 19.0625 8.875 C21.87141883 1.12858117 21.87141883 1.12858117 23 0 C24.99958364 -0.04080783 27.00045254 -0.04254356 29 0 C27.0200675 7.03377165 24.62609161 13.79562083 21.875 20.5625 C21.51535156 21.46291016 21.15570312 22.36332031 20.78515625 23.29101562 C18.13620022 29.86379978 18.13620022 29.86379978 17 31 C15.33382885 31.04063832 13.66611905 31.042721 12 31 C10.44558865 27.3913678 8.89754857 23.78007525 7.35522461 20.16625977 C6.57281876 18.33663006 5.78546487 16.50911885 4.99804688 14.68164062 C4.25844727 12.94624023 4.25844727 12.94624023 3.50390625 11.17578125 C3.04830322 10.11270752 2.5927002 9.04963379 2.12329102 7.9543457 C1.10837097 5.28502438 0.45687625 2.81172097 0 0 Z " fill="#005A7F" transform="translate(815,374)"/>
<path d="M0 0 C8.25 0 16.5 0 25 0 C25 1.98 25 3.96 25 6 C22.03 6 19.06 6 16 6 C16 14.25 16 22.5 16 31 C14.02 31 12.04 31 10 31 C10 22.75 10 14.5 10 6 C6.7 6 3.4 6 0 6 C0 4.02 0 2.04 0 0 Z " fill="#005A7F" transform="translate(924,374)"/>
<path d="M0 0 C8.25 0 16.5 0 25 0 C25 1.98 25 3.96 25 6 C21.7 6 18.4 6 15 6 C15 14.25 15 22.5 15 31 C13.02 31 11.04 31 9 31 C9 22.75 9 14.5 9 6 C6.03 6 3.06 6 0 6 C0 4.02 0 2.04 0 0 Z " fill="#005A7F" transform="translate(170,374)"/>
<path d="M0 0 C8.25 0 16.5 0 25 0 C25 1.98 25 3.96 25 6 C21.7 6 18.4 6 15 6 C15 14.25 15 22.5 15 31 C13.35 31 11.7 31 10 31 C10 22.75 10 14.5 10 6 C6.7 6 3.4 6 0 6 C0 4.02 0 2.04 0 0 Z " fill="#005A7F" transform="translate(334,374)"/>
<path d="M0 0 C1.98 0 3.96 0 6 0 C6 10.23 6 20.46 6 31 C4.02 31 2.04 31 0 31 C0 20.77 0 10.54 0 0 Z " fill="#005A7F" transform="translate(981,374)"/>
<path d="M0 0 C1.65 0 3.3 0 5 0 C5 10.23 5 20.46 5 31 C3.35 31 1.7 31 0 31 C0 20.77 0 10.54 0 0 Z " fill="#005A7F" transform="translate(598,374)"/>
<path d="M0 0 C1.65 0 3.3 0 5 0 C5 2.31 5 4.62 5 7 C3.35 7 1.7 7 0 7 C0 4.69 0 2.38 0 0 Z " fill="#005A7F" transform="translate(559,388)"/>
</svg>
