<svg xmlns="http://www.w3.org/2000/svg" viewBox="0 0 32 32" width="32" height="32">
  <!-- Fondo azul -->
  <rect width="32" height="32" rx="6" fill="#2563eb"/>
  
  <!-- Microscopio -->
  <path d="M10 24h4v-2h-4z" fill="#e5e7eb"/>
  <path d="M12 22v-4l2-2 2 2v2" fill="#f3f4f6"/>
  <circle cx="14" cy="16" r="1.5" fill="#fbbf24"/>
  <rect x="13" y="8" width="2" height="8" fill="#f3f4f6"/>
  <circle cx="14" cy="8" r="1" fill="#374151"/>
  
  <!-- Gráfico -->
  <rect x="20" y="20" width="1.5" height="4" fill="#10b981"/>
  <rect x="22.5" y="18" width="1.5" height="6" fill="#10b981"/>
  <rect x="25" y="16" width="1.5" height="8" fill="#10b981"/>
  
  <!-- Estrella -->
  <path d="M20 10l1 2 2 0-1.5 1.5 0.5 2-2-1-2 1 0.5-2L17 12l2 0z" fill="#fbbf24"/>
</svg> 